<mxfile host="app.diagrams.net" modified="2022-10-07T17:16:30.920Z" agent="5.0 (Windows)" etag="kbJMPy_NhMvZ5fFO8cPo" version="20.4.0" type="github">
  <diagram id="R2lEEEUBdFMjLlhIrx00" name="Page-1">
    <mxGraphModel dx="981" dy="513" grid="1" gridSize="10" guides="1" tooltips="1" connect="1" arrows="1" fold="1" page="1" pageScale="1" pageWidth="850" pageHeight="1100" math="0" shadow="0" extFonts="Permanent Marker^https://fonts.googleapis.com/css?family=Permanent+Marker">
      <root>
        <mxCell id="0" />
        <mxCell id="1" parent="0" />
        <mxCell id="Ex-L4aGwFpbzaDfzThJW-44" style="edgeStyle=orthogonalEdgeStyle;rounded=0;orthogonalLoop=1;jettySize=auto;html=1;entryX=0;entryY=0.5;entryDx=0;entryDy=0;" edge="1" parent="1" source="Ex-L4aGwFpbzaDfzThJW-1" target="Ex-L4aGwFpbzaDfzThJW-43">
          <mxGeometry relative="1" as="geometry" />
        </mxCell>
        <mxCell id="Ex-L4aGwFpbzaDfzThJW-50" style="edgeStyle=orthogonalEdgeStyle;rounded=0;orthogonalLoop=1;jettySize=auto;html=1;entryX=0;entryY=0.5;entryDx=0;entryDy=0;" edge="1" parent="1" source="Ex-L4aGwFpbzaDfzThJW-1" target="Ex-L4aGwFpbzaDfzThJW-49">
          <mxGeometry relative="1" as="geometry">
            <Array as="points">
              <mxPoint x="246" y="290" />
              <mxPoint x="246" y="325" />
            </Array>
          </mxGeometry>
        </mxCell>
        <mxCell id="Ex-L4aGwFpbzaDfzThJW-65" style="edgeStyle=orthogonalEdgeStyle;rounded=0;orthogonalLoop=1;jettySize=auto;html=1;entryX=0;entryY=0.5;entryDx=0;entryDy=0;" edge="1" parent="1" source="Ex-L4aGwFpbzaDfzThJW-1" target="Ex-L4aGwFpbzaDfzThJW-64">
          <mxGeometry relative="1" as="geometry" />
        </mxCell>
        <mxCell id="Ex-L4aGwFpbzaDfzThJW-1" value="Zoom user" style="rounded=0;whiteSpace=wrap;html=1;" vertex="1" parent="1">
          <mxGeometry x="40" y="260" width="120" height="40" as="geometry" />
        </mxCell>
        <mxCell id="Ex-L4aGwFpbzaDfzThJW-11" style="edgeStyle=orthogonalEdgeStyle;rounded=0;orthogonalLoop=1;jettySize=auto;html=1;entryX=0.371;entryY=0.037;entryDx=0;entryDy=0;entryPerimeter=0;" edge="1" parent="1" source="Ex-L4aGwFpbzaDfzThJW-2" target="Ex-L4aGwFpbzaDfzThJW-1">
          <mxGeometry relative="1" as="geometry" />
        </mxCell>
        <mxCell id="Ex-L4aGwFpbzaDfzThJW-2" value="&lt;u&gt;zoomid&lt;br&gt;&lt;/u&gt;" style="ellipse;whiteSpace=wrap;html=1;" vertex="1" parent="1">
          <mxGeometry x="20" y="200" width="70" height="30" as="geometry" />
        </mxCell>
        <mxCell id="Ex-L4aGwFpbzaDfzThJW-12" style="edgeStyle=orthogonalEdgeStyle;rounded=0;orthogonalLoop=1;jettySize=auto;html=1;" edge="1" parent="1" source="Ex-L4aGwFpbzaDfzThJW-9" target="Ex-L4aGwFpbzaDfzThJW-1">
          <mxGeometry relative="1" as="geometry" />
        </mxCell>
        <mxCell id="Ex-L4aGwFpbzaDfzThJW-9" value="name" style="ellipse;whiteSpace=wrap;html=1;" vertex="1" parent="1">
          <mxGeometry x="100" y="200" width="70" height="30" as="geometry" />
        </mxCell>
        <mxCell id="Ex-L4aGwFpbzaDfzThJW-13" value="Zoom meeting" style="rounded=0;whiteSpace=wrap;html=1;" vertex="1" parent="1">
          <mxGeometry x="640" y="250" width="120" height="50" as="geometry" />
        </mxCell>
        <mxCell id="Ex-L4aGwFpbzaDfzThJW-29" style="edgeStyle=orthogonalEdgeStyle;rounded=0;orthogonalLoop=1;jettySize=auto;html=1;entryX=0.124;entryY=0.037;entryDx=0;entryDy=0;entryPerimeter=0;" edge="1" parent="1" source="Ex-L4aGwFpbzaDfzThJW-14" target="Ex-L4aGwFpbzaDfzThJW-13">
          <mxGeometry relative="1" as="geometry">
            <Array as="points">
              <mxPoint x="600" y="230" />
              <mxPoint x="655" y="230" />
            </Array>
          </mxGeometry>
        </mxCell>
        <mxCell id="Ex-L4aGwFpbzaDfzThJW-14" value="&lt;u&gt;meetingid&lt;/u&gt;" style="ellipse;whiteSpace=wrap;html=1;" vertex="1" parent="1">
          <mxGeometry x="560" y="175" width="70" height="30" as="geometry" />
        </mxCell>
        <mxCell id="Ex-L4aGwFpbzaDfzThJW-30" style="edgeStyle=orthogonalEdgeStyle;rounded=0;orthogonalLoop=1;jettySize=auto;html=1;entryX=0.25;entryY=0;entryDx=0;entryDy=0;" edge="1" parent="1" source="Ex-L4aGwFpbzaDfzThJW-15" target="Ex-L4aGwFpbzaDfzThJW-13">
          <mxGeometry relative="1" as="geometry" />
        </mxCell>
        <mxCell id="Ex-L4aGwFpbzaDfzThJW-15" value="passcode" style="ellipse;whiteSpace=wrap;html=1;" vertex="1" parent="1">
          <mxGeometry x="620" y="150" width="70" height="25" as="geometry" />
        </mxCell>
        <mxCell id="Ex-L4aGwFpbzaDfzThJW-31" style="edgeStyle=orthogonalEdgeStyle;rounded=0;orthogonalLoop=1;jettySize=auto;html=1;entryX=0.405;entryY=0.023;entryDx=0;entryDy=0;entryPerimeter=0;" edge="1" parent="1" source="Ex-L4aGwFpbzaDfzThJW-16" target="Ex-L4aGwFpbzaDfzThJW-13">
          <mxGeometry relative="1" as="geometry" />
        </mxCell>
        <mxCell id="Ex-L4aGwFpbzaDfzThJW-16" value="meetingname" style="ellipse;whiteSpace=wrap;html=1;" vertex="1" parent="1">
          <mxGeometry x="680" y="170" width="90" height="30" as="geometry" />
        </mxCell>
        <mxCell id="Ex-L4aGwFpbzaDfzThJW-42" style="edgeStyle=orthogonalEdgeStyle;rounded=0;orthogonalLoop=1;jettySize=auto;html=1;entryX=0.75;entryY=0;entryDx=0;entryDy=0;" edge="1" parent="1" source="Ex-L4aGwFpbzaDfzThJW-34" target="Ex-L4aGwFpbzaDfzThJW-13">
          <mxGeometry relative="1" as="geometry">
            <Array as="points">
              <mxPoint x="730" y="230" />
            </Array>
          </mxGeometry>
        </mxCell>
        <mxCell id="Ex-L4aGwFpbzaDfzThJW-34" value="number of attendees" style="ellipse;whiteSpace=wrap;html=1;align=center;dashed=1;" vertex="1" parent="1">
          <mxGeometry x="750" y="197.5" width="80" height="35" as="geometry" />
        </mxCell>
        <mxCell id="Ex-L4aGwFpbzaDfzThJW-45" style="edgeStyle=orthogonalEdgeStyle;rounded=0;orthogonalLoop=1;jettySize=auto;html=1;entryX=0;entryY=0.5;entryDx=0;entryDy=0;" edge="1" parent="1" source="Ex-L4aGwFpbzaDfzThJW-43" target="Ex-L4aGwFpbzaDfzThJW-13">
          <mxGeometry relative="1" as="geometry" />
        </mxCell>
        <mxCell id="Ex-L4aGwFpbzaDfzThJW-43" value="attend" style="shape=rhombus;perimeter=rhombusPerimeter;whiteSpace=wrap;html=1;align=center;" vertex="1" parent="1">
          <mxGeometry x="340" y="222.5" width="90" height="37.5" as="geometry" />
        </mxCell>
        <mxCell id="Ex-L4aGwFpbzaDfzThJW-46" value="n" style="text;html=1;align=center;verticalAlign=middle;resizable=0;points=[];autosize=1;strokeColor=none;fillColor=none;" vertex="1" parent="1">
          <mxGeometry x="275" y="215" width="30" height="30" as="geometry" />
        </mxCell>
        <mxCell id="Ex-L4aGwFpbzaDfzThJW-47" value="m" style="text;html=1;align=center;verticalAlign=middle;resizable=0;points=[];autosize=1;strokeColor=none;fillColor=none;" vertex="1" parent="1">
          <mxGeometry x="435" y="215" width="30" height="30" as="geometry" />
        </mxCell>
        <mxCell id="Ex-L4aGwFpbzaDfzThJW-51" style="edgeStyle=orthogonalEdgeStyle;rounded=0;orthogonalLoop=1;jettySize=auto;html=1;entryX=-0.003;entryY=0.864;entryDx=0;entryDy=0;entryPerimeter=0;" edge="1" parent="1" source="Ex-L4aGwFpbzaDfzThJW-49" target="Ex-L4aGwFpbzaDfzThJW-13">
          <mxGeometry relative="1" as="geometry" />
        </mxCell>
        <mxCell id="Ex-L4aGwFpbzaDfzThJW-49" value="host" style="shape=rhombus;perimeter=rhombusPerimeter;whiteSpace=wrap;html=1;align=center;" vertex="1" parent="1">
          <mxGeometry x="332.5" y="310" width="107.5" height="30" as="geometry" />
        </mxCell>
        <mxCell id="Ex-L4aGwFpbzaDfzThJW-52" value="1" style="text;html=1;align=center;verticalAlign=middle;resizable=0;points=[];autosize=1;strokeColor=none;fillColor=none;" vertex="1" parent="1">
          <mxGeometry x="295" y="300" width="30" height="30" as="geometry" />
        </mxCell>
        <mxCell id="Ex-L4aGwFpbzaDfzThJW-53" value="n" style="text;html=1;align=center;verticalAlign=middle;resizable=0;points=[];autosize=1;strokeColor=none;fillColor=none;" vertex="1" parent="1">
          <mxGeometry x="440" y="300" width="30" height="30" as="geometry" />
        </mxCell>
        <mxCell id="Ex-L4aGwFpbzaDfzThJW-54" value="calendar" style="whiteSpace=wrap;html=1;align=center;" vertex="1" parent="1">
          <mxGeometry x="350" y="400" width="100" height="40" as="geometry" />
        </mxCell>
        <mxCell id="Ex-L4aGwFpbzaDfzThJW-61" style="edgeStyle=orthogonalEdgeStyle;rounded=0;orthogonalLoop=1;jettySize=auto;html=1;entryX=0.359;entryY=1.028;entryDx=0;entryDy=0;entryPerimeter=0;" edge="1" parent="1" source="Ex-L4aGwFpbzaDfzThJW-58" target="Ex-L4aGwFpbzaDfzThJW-54">
          <mxGeometry relative="1" as="geometry" />
        </mxCell>
        <mxCell id="Ex-L4aGwFpbzaDfzThJW-58" value="calid" style="ellipse;whiteSpace=wrap;html=1;align=center;fontStyle=4;" vertex="1" parent="1">
          <mxGeometry x="310" y="480" width="70" height="30" as="geometry" />
        </mxCell>
        <mxCell id="Ex-L4aGwFpbzaDfzThJW-62" style="edgeStyle=orthogonalEdgeStyle;rounded=0;orthogonalLoop=1;jettySize=auto;html=1;entryX=0.573;entryY=1.028;entryDx=0;entryDy=0;entryPerimeter=0;" edge="1" parent="1" source="Ex-L4aGwFpbzaDfzThJW-60" target="Ex-L4aGwFpbzaDfzThJW-54">
          <mxGeometry relative="1" as="geometry" />
        </mxCell>
        <mxCell id="Ex-L4aGwFpbzaDfzThJW-60" value="name" style="ellipse;whiteSpace=wrap;html=1;align=center;fontStyle=4;" vertex="1" parent="1">
          <mxGeometry x="390" y="480" width="80" height="30" as="geometry" />
        </mxCell>
        <mxCell id="Ex-L4aGwFpbzaDfzThJW-66" style="edgeStyle=orthogonalEdgeStyle;rounded=0;orthogonalLoop=1;jettySize=auto;html=1;entryX=0;entryY=0.5;entryDx=0;entryDy=0;" edge="1" parent="1" source="Ex-L4aGwFpbzaDfzThJW-64" target="Ex-L4aGwFpbzaDfzThJW-54">
          <mxGeometry relative="1" as="geometry" />
        </mxCell>
        <mxCell id="Ex-L4aGwFpbzaDfzThJW-64" value="integrate to" style="shape=rhombus;perimeter=rhombusPerimeter;whiteSpace=wrap;html=1;align=center;" vertex="1" parent="1">
          <mxGeometry x="130" y="380" width="105" height="40" as="geometry" />
        </mxCell>
      </root>
    </mxGraphModel>
  </diagram>
</mxfile>
